# xmcd
#
# Track frame offsets:
#	150
#	18964
#	62677
#	77359
#	98829
#	116561
#	139720
#	157419
#	179943
#	198341
#	220722
#	236875
#	251073
#
# Disc length: 3579 seconds
#
# Revision: 1
# Processed by: cddbd v1.5.1PL2 Copyright (c) Steve Scherf et al.
# Submitted via: audiograbber 1.80.04
#
DISCID=b90df90d
DTITLE=Georg Danzer - 13 Schmutzige Lieder
DYEAR=1900
DGENRE=
TTITLE0=New Orleans Alptraum Stomp
TTITLE1=Murphy`s Law
TTITLE2=Sado-Maso
TTITLE3=Swingin Prostata
TTITLE4=Rosarote Gummihandschuach
TTITLE5=Gnädige Frau in Malaca
TTITLE6=Eigentlich bin ich ein Schwein
TTITLE7=Der Imaginäre Vibrator Walzer
TTITLE8=Karibik in Unterhosen
TTITLE9=Olle Weiber san G`frasta
TTITLE10=A alte Drecksau
TTITLE11=Strandbrunza Tango
TTITLE12=Ballade vom versteckten Tschurifetzen
EXTD=
EXTT0=
EXTT1=
EXTT2=
EXTT3=
EXTT4=
EXTT5=
EXTT6=
EXTT7=
EXTT8=
EXTT9=
EXTT10=
EXTT11=
EXTT12=
PLAYORDER=
